<svg version="1.1" preserveAspectRatio="none" xmlns="http://www.w3.org/2000/svg" width="500" height="500" viewBox="0 0 500 500"><rect width="100%" height="100%" fill="#FFFFFF" fill-opacity="1"/><svg viewBox="351.2329 415.7708 415.9938 162.8" width="333" height="130.32021150315222" x="83.5px" y="184.8399px" xmlns="http://www.w3.org/2000/svg" xmlns:xlink="http://www.w3.org/1999/xlink" preserveAspectRatio="none"><defs></defs><style>.companyName {fill:#182145;fill-opacity:1;}.icon1 {fill:#182145;fill-opacity:1;}.icon2 {fill:#E35B34;fill-opacity:1;}.icon3 {fill:#E3D454;fill-opacity:1;}.icon3-str {stroke:#E3D454;stroke-opacity:1;}.text {fill:#182145;fill-opacity:1;}</style><g opacity="1" transform="rotate(0 351.2329 415.7708)">
<svg width="153.8579" height="162.8" x="351.2329" y="415.7708" version="1.1" preserveAspectRatio="none" viewBox="24.60000228881836 20.024017333984375 151 159.77598571777344">
  <g transform="matrix(1 0 0 1 0 0)"><g><path d="M89.8 97.5c0 6.3 1.2 11.8 3.5 16.1.2.4.8.6 1.2.4.4-.2.6-.8.4-1.2-2.1-3.9-3.2-8.7-3.3-14.4h69.9c-.1 5-1 9.3-2.6 12.9-.2.4 0 1 .4 1.2.4.2 1 0 1.2-.4 1.8-4.1 2.7-9 2.7-14.6v-.9H89.8v.9z" data-color="1" class="icon1"></path><path d="M130.9 155.4c-4.6-7.1-12.1-11.3-20.3-11.3-10.5 0-19.8 6.8-23.1 17.1-5.1.9-10 3.5-13.6 7.4-.3.4-.3.9.1 1.3.4.3.9.3 1.2 0 3.5-3.8 8.1-6.2 13.1-7l.6-.1.2-.5c3-9.8 11.7-16.4 21.6-16.4 7.8 0 15 4.1 19.2 11l.4.6.7-.2c1.3-.4 2.7-.6 4.1-.6 3.1 0 6.1 1.1 8.6 3.1.4.3.9.3 1.2-.1s.3-.9-.1-1.3c-2.8-2.3-6.1-3.5-9.7-3.5-1.6-.1-2.9.1-4.2.5z" data-color="1" class="icon1"></path><path d="M165.9 121.6c.4.3.9.3 1.3 0 .3-.3.3-.9 0-1.2-4.6-4.5-10.6-7-16.9-7-10.6 0-19.9 7-23.2 17.2-2.9-2.9-6.8-4.6-10.9-4.6-1 0-2 .1-3.1.3-2.5-5.8-8-9.5-14.2-9.5-1.3 0-2.7.2-4 .5-4.6-7.1-12.1-11.3-20.3-11.3-10.5 0-19.8 6.8-23.1 17.1-5 .9-9.6 3.4-13.2 7.1-1.5-.7-3.1-1.3-4.8-1.6-.5-.1-1 .2-1.1.7-.1.5.2 1 .7 1.1 9.8 2.2 17 11.1 17 21.2v1.9l1.1-.3c1.8-.4 3.6-.7 5.4-.7 4 0 8 1.1 11.4 3.3l.9.6.4-1c.9-2.5 2.4-4.7 4.4-6.4 5.4-4.6 13.5-5 19.3-.9.4.3 1 .2 1.2-.2.3-.4.2-1-.2-1.2-6.5-4.5-15.5-4.1-21.5 1.1-2 1.7-3.5 3.8-4.6 6.2-3.5-2-7.4-3-11.4-3-1.6 0-3.1.2-4.7.5-.2-8.4-4.9-16-12-20 3.4-3.3 7.7-5.6 12.4-6.3l.6-.1.2-.5c3-9.8 11.7-16.4 21.6-16.4 7.8 0 15 4.1 19.2 11l.4.6.7-.2c1.3-.4 2.7-.6 4.1-.6 5.7 0 10.7 3.6 12.8 9.1l.3.7.8-.2c1.1-.3 2.2-.4 3.4-.4 4.1 0 8 1.9 10.6 5.1l1.1 1.4.4-1.7c2.6-10.8 11.6-18 21.9-18 5.8 0 11.4 2.4 15.6 6.6z" data-color="1" class="icon1"></path><path d="M51.3 42.5c7.6 5.2 18.1 12.3 18.5 13.9v.6c-.1 1.9-.2 2.8.7 5.1.7 1.8 1.6 3.3 2.7 4.6 2.7 3.2 9.7 7.6 15.6 7.6 1.5 0 2.9-.3 4.1-.9.6-.3 1.1-.9 1.3-1.5 1.9-6.8-6.1-15.4-10.7-17.9-1.5-.8-3.2-1.4-5.1-1.7-2.4-.3-3.3-.1-5.1.4l-.5.2c-1.8-.1-11-8.9-17.7-15.2-7-6.7-14.3-13.7-17.9-15.8-4.8-2.9-6.7-1.8-7.4-.9-1.3 1.6-.4 4.5 2.3 7.3 2.8 3.1 11.2 8.7 19.2 14.2zM31.1 22.1c.2-.2.5-.3.9-.3.9 0 2.3.4 4.2 1.6 3.5 2.1 10.7 8.9 17.6 15.6C66 50.5 71.2 55.1 73.2 54.6l.6-.2c1.8-.5 2.3-.7 4.4-.4 1.7.2 3.1.7 4.5 1.5 4.3 2.3 11.4 10.3 9.8 15.8-.1.2-.2.4-.4.5-5.2 2.7-14.3-2.5-17.5-6.2-1-1.2-1.8-2.5-2.4-4.1-.7-1.9-.7-2.5-.6-4.3v-.6c.1-2.1-5.5-6.1-19.3-15.4-8-5.4-16.2-11-19-13.9-2.3-2.6-2.6-4.6-2.2-5.2z" data-color="1" class="icon1"></path><path d="M115.5 79.7c-1.9 0-3.5 1.6-3.5 3.5s1.6 3.5 3.5 3.5 3.5-1.6 3.5-3.5-1.6-3.5-3.5-3.5zm0 5.2c-.9 0-1.7-.8-1.7-1.7 0-.9.8-1.7 1.7-1.7s1.7.8 1.7 1.7c0 .9-.7 1.7-1.7 1.7z" data-color="1" class="icon1"></path><path d="M99.1 90.7c0 1.9 1.6 3.5 3.5 3.5s3.5-1.6 3.5-3.5-1.6-3.5-3.5-3.5-3.5 1.6-3.5 3.5zm5.1 0c0 .9-.8 1.7-1.7 1.7s-1.7-.8-1.7-1.7c0-.9.8-1.7 1.7-1.7s1.7.8 1.7 1.7z" data-color="1" class="icon1"></path><path d="M129.5 93.3c1.9 0 3.5-1.6 3.5-3.5s-1.6-3.5-3.5-3.5-3.5 1.6-3.5 3.5 1.6 3.5 3.5 3.5zm0-5.2c.9 0 1.7.8 1.7 1.7 0 .9-.8 1.7-1.7 1.7s-1.7-.8-1.7-1.7c0-.9.8-1.7 1.7-1.7z" data-color="1" class="icon1"></path><path d="M139.8 74.6c-1.9 0-3.5 1.6-3.5 3.5s1.6 3.5 3.5 3.5 3.5-1.6 3.5-3.5c-.1-1.9-1.6-3.5-3.5-3.5zm0 5.1c-.9 0-1.7-.8-1.7-1.7 0-.9.8-1.7 1.7-1.7s1.7.8 1.7 1.7c-.1 1-.8 1.7-1.7 1.7z" data-color="1" class="icon1"></path><path d="M142.3 90.7c0 1.9 1.5 3.5 3.5 3.5 1.9 0 3.5-1.6 3.5-3.5s-1.6-3.5-3.5-3.5c-1.9.1-3.5 1.6-3.5 3.5zm5.1 0c0 .9-.8 1.7-1.7 1.7s-1.7-.8-1.7-1.7c0-.9.8-1.7 1.7-1.7s1.7.8 1.7 1.7z" data-color="1" class="icon1"></path><path d="M108.1 86.7c.5 0 .9-.4.9-.9 0-.1 0-.2-.1-.3l-3-7.7c-.2-.5-.7-.7-1.2-.5-.4.2-.7.7-.5 1.1l3 7.7c.2.3.6.6.9.6z" data-color="1" class="icon1"></path><path d="M125.2 82.6l-7.7 7.5c-.4.3-.4.9 0 1.3.3.4.9.4 1.3 0l7.7-7.5c.4-.3.4-.9 0-1.3s-.9-.4-1.3 0z" data-color="1" class="icon1"></path><path d="M145.4 82.4l-6 2.6c-.4.2-.6.7-.4 1.2.2.4.7.6 1.1.4l6-2.6c.4-.2.6-.7.4-1.2-.2-.4-.7-.6-1.1-.4z" data-color="1" class="icon1"></path><path d="M100 28.9c-11.1 0-21.8 2.4-31.8 7-.4.2-.6.7-.4 1.2.2.4.7.6 1.2.4 9.8-4.6 20.2-6.9 31.1-6.9 40.7 0 73.7 33.1 73.7 73.7S140.7 178 100.1 178s-73.7-33.1-73.7-73.7c0-20.3 8.1-39.2 22.7-53.2.4-.3.4-.9 0-1.3-.3-.4-.9-.4-1.3 0-15 14.4-23.2 33.7-23.2 54.5 0 41.6 33.9 75.5 75.5 75.5s75.5-33.9 75.5-75.5-34-75.4-75.6-75.4z" data-color="1" class="icon1"></path></g></g>
</svg>
</g><g opacity="1" transform="rotate(0 535.0908 555.7708)">
<svg width="208.2304" height="22.8" x="535.0908" y="555.7708" version="1.1" preserveAspectRatio="none" viewBox="3.28 -29.96 276.24 30.240000000000002">
  <g transform="matrix(1 0 0 1 0 0)" class="text"><path id="id-6izo4zJp14" d="M15.40-21.60Q19.44-21.60 21.88-19.24Q24.32-16.88 24.32-12.24L24.32-12.24L24.32 0L19.32 0L19.32-11.60Q19.32-14.40 18-15.82Q16.68-17.24 14.24-17.24L14.24-17.24Q11.48-17.24 9.88-15.58Q8.28-13.92 8.28-10.80L8.28-10.80L8.28 0L3.28 0L3.28-29.68L8.28-29.68L8.28-18.88Q9.52-20.20 11.34-20.90Q13.16-21.60 15.40-21.60L15.40-21.60Z M40.04-21.60Q44.76-21.60 47.26-19.34Q49.76-17.08 49.76-12.52L49.76-12.52L49.76 0L45.04 0L45.04-2.60Q44.12-1.20 42.42-0.46Q40.72 0.28 38.32 0.28L38.32 0.28Q35.92 0.28 34.12-0.54Q32.32-1.36 31.34-2.82Q30.36-4.28 30.36-6.12L30.36-6.12Q30.36-9 32.50-10.74Q34.64-12.48 39.24-12.48L39.24-12.48L44.76-12.48L44.76-12.80Q44.76-15.04 43.42-16.24Q42.08-17.44 39.44-17.44L39.44-17.44Q37.64-17.44 35.90-16.88Q34.16-16.32 32.96-15.32L32.96-15.32L31-18.96Q32.68-20.24 35.04-20.92Q37.40-21.60 40.04-21.60L40.04-21.60ZM39.36-3.36Q41.24-3.36 42.70-4.22Q44.16-5.08 44.76-6.68L44.76-6.68L44.76-9.16L39.60-9.16Q35.28-9.16 35.28-6.32L35.28-6.32Q35.28-4.96 36.36-4.16Q37.44-3.36 39.36-3.36L39.36-3.36Z M72.16-21.36L76.96-21.36L67.80 0L62.64 0L53.48-21.36L58.68-21.36L65.32-5.52L72.16-21.36Z M100.76-10.56Q100.76-10.04 100.68-9.08L100.68-9.08L83.92-9.08Q84.36-6.72 86.22-5.34Q88.08-3.96 90.84-3.96L90.84-3.96Q94.36-3.96 96.64-6.28L96.64-6.28L99.32-3.20Q97.88-1.48 95.68-0.60Q93.48 0.28 90.72 0.28L90.72 0.28Q87.20 0.28 84.52-1.12Q81.84-2.52 80.38-5.02Q78.92-7.52 78.92-10.68L78.92-10.68Q78.92-13.80 80.34-16.30Q81.76-18.80 84.28-20.20Q86.80-21.60 89.96-21.60L89.96-21.60Q93.08-21.60 95.54-20.22Q98.00-18.84 99.38-16.34Q100.76-13.84 100.76-10.56L100.76-10.56ZM89.96-17.60Q87.56-17.60 85.90-16.18Q84.24-14.76 83.88-12.40L83.88-12.40L96.00-12.40Q95.68-14.72 94.04-16.16Q92.40-17.60 89.96-17.60L89.96-17.60Z M127.16-21.60Q131.88-21.60 134.38-19.34Q136.88-17.08 136.88-12.52L136.88-12.52L136.88 0L132.16 0L132.16-2.60Q131.24-1.20 129.54-0.46Q127.84 0.28 125.44 0.28L125.44 0.28Q123.04 0.28 121.24-0.54Q119.44-1.36 118.46-2.82Q117.48-4.28 117.48-6.12L117.48-6.12Q117.48-9 119.62-10.74Q121.76-12.48 126.36-12.48L126.36-12.48L131.88-12.48L131.88-12.80Q131.88-15.04 130.54-16.24Q129.20-17.44 126.56-17.44L126.56-17.44Q124.76-17.44 123.02-16.88Q121.28-16.32 120.08-15.32L120.08-15.32L118.12-18.96Q119.80-20.24 122.16-20.92Q124.52-21.60 127.16-21.60L127.16-21.60ZM126.48-3.36Q128.36-3.36 129.82-4.22Q131.28-5.08 131.88-6.68L131.88-6.68L131.88-9.16L126.72-9.16Q122.40-9.16 122.40-6.32L122.40-6.32Q122.40-4.96 123.48-4.16Q124.56-3.36 126.48-3.36L126.48-3.36Z M165.40-25.92Q162.24-25.92 162.24-22.48L162.24-22.48L162.24-21.20L168.12-21.20L168.12-17.20L162.40-17.20L162.40 0L157.40 0L157.40-17.20L153.88-17.20L153.88-21.20L157.40-21.20L157.40-22.56Q157.40-26 159.40-27.98Q161.40-29.96 165.04-29.96L165.04-29.96Q167.92-29.96 169.56-28.80L169.56-28.80L168.16-25.04Q166.88-25.92 165.40-25.92L165.40-25.92Z M192.44-10.56Q192.44-10.04 192.36-9.08L192.36-9.08L175.60-9.08Q176.04-6.72 177.90-5.34Q179.76-3.96 182.52-3.96L182.52-3.96Q186.04-3.96 188.32-6.28L188.32-6.28L191-3.20Q189.56-1.48 187.36-0.60Q185.16 0.28 182.40 0.28L182.40 0.28Q178.88 0.28 176.20-1.12Q173.52-2.52 172.06-5.02Q170.60-7.52 170.60-10.68L170.60-10.68Q170.60-13.80 172.02-16.30Q173.44-18.80 175.96-20.20Q178.48-21.60 181.64-21.60L181.64-21.60Q184.76-21.60 187.22-20.22Q189.68-18.84 191.06-16.34Q192.44-13.84 192.44-10.56L192.44-10.56ZM181.64-17.60Q179.24-17.60 177.58-16.18Q175.92-14.76 175.56-12.40L175.56-12.40L187.68-12.40Q187.36-14.72 185.72-16.16Q184.08-17.60 181.64-17.60L181.64-17.60Z M206.00-21.60Q210.72-21.60 213.22-19.34Q215.72-17.08 215.72-12.52L215.72-12.52L215.72 0L211.00 0L211.00-2.60Q210.08-1.20 208.38-0.46Q206.68 0.28 204.28 0.28L204.28 0.28Q201.88 0.28 200.08-0.54Q198.28-1.36 197.30-2.82Q196.32-4.28 196.32-6.12L196.32-6.12Q196.32-9 198.46-10.74Q200.60-12.48 205.20-12.48L205.20-12.48L210.72-12.48L210.72-12.80Q210.72-15.04 209.38-16.24Q208.04-17.44 205.40-17.44L205.40-17.44Q203.60-17.44 201.86-16.88Q200.12-16.32 198.92-15.32L198.92-15.32L196.96-18.96Q198.64-20.24 201.00-20.92Q203.36-21.60 206.00-21.60L206.00-21.60ZM205.32-3.36Q207.20-3.36 208.66-4.22Q210.12-5.08 210.72-6.68L210.72-6.68L210.72-9.16L205.56-9.16Q201.24-9.16 201.24-6.32L201.24-6.32Q201.24-4.96 202.32-4.16Q203.40-3.36 205.32-3.36L205.32-3.36Z M229.92 0.28Q227.32 0.28 224.84-0.40Q222.36-1.08 220.88-2.12L220.88-2.12L222.80-5.92Q224.24-4.96 226.26-4.38Q228.28-3.80 230.24-3.80L230.24-3.80Q234.72-3.80 234.72-6.16L234.72-6.16Q234.72-7.28 233.58-7.72Q232.44-8.16 229.92-8.56L229.92-8.56Q227.28-8.96 225.62-9.48Q223.96-10 222.74-11.30Q221.52-12.60 221.52-14.92L221.52-14.92Q221.52-17.96 224.06-19.78Q226.60-21.60 230.92-21.60L230.92-21.60Q233.12-21.60 235.32-21.10Q237.52-20.60 238.92-19.76L238.92-19.76L237.00-15.96Q234.28-17.56 230.88-17.56L230.88-17.56Q228.68-17.56 227.54-16.90Q226.40-16.24 226.40-15.16L226.40-15.16Q226.40-13.96 227.62-13.46Q228.84-12.96 231.40-12.52L231.40-12.52Q233.96-12.12 235.60-11.60Q237.24-11.08 238.42-9.84Q239.60-8.60 239.60-6.32L239.60-6.32Q239.60-3.32 237.00-1.52Q234.40 0.28 229.92 0.28L229.92 0.28Z M256.56-4.72L257.96-1.16Q257.08-0.44 255.82-0.08Q254.56 0.28 253.16 0.28L253.16 0.28Q249.64 0.28 247.72-1.56Q245.80-3.40 245.80-6.92L245.80-6.92L245.80-17.20L242.28-17.20L242.28-21.20L245.80-21.20L245.80-26.08L250.80-26.08L250.80-21.20L256.52-21.20L256.52-17.20L250.80-17.20L250.80-7.04Q250.80-5.48 251.56-4.66Q252.32-3.84 253.76-3.84L253.76-3.84Q255.44-3.84 256.56-4.72L256.56-4.72Z M265.28 0.28Q263.92 0.28 262.96-0.66Q262.00-1.60 262.00-3.04L262.00-3.04Q262.00-4.52 262.94-5.44Q263.88-6.36 265.28-6.36L265.28-6.36Q266.68-6.36 267.62-5.44Q268.56-4.52 268.56-3.04L268.56-3.04Q268.56-1.60 267.60-0.66Q266.64 0.28 265.28 0.28L265.28 0.28Z M276.24 0.28Q274.88 0.28 273.92-0.66Q272.96-1.60 272.96-3.04L272.96-3.04Q272.96-4.52 273.90-5.44Q274.84-6.36 276.24-6.36L276.24-6.36Q277.64-6.36 278.58-5.44Q279.52-4.52 279.52-3.04L279.52-3.04Q279.52-1.60 278.56-0.66Q277.60 0.28 276.24 0.28L276.24 0.28Z"/></g>
</svg>
</g><g opacity="1" transform="rotate(0 535.0908 415.7708)">
<svg width="232.1359" height="120" x="535.0908" y="415.7708" version="1.1" preserveAspectRatio="none" viewBox="-0.36 -28 54.16 28">
  <g transform="matrix(1 0 0 1 0 0)" class="companyName"><path id="id-D6z1nYkh2" d="M24.24 0L21.76-6L8.76-6L6.28 0L-0.36 0L12.12-28L18.52-28L31.04 0L24.24 0ZM10.84-10.92L19.72-10.92L15.28-21.64L10.84-10.92Z M38.36 0L38.36-22.72L29.40-22.72L29.40-28L53.80-28L53.80-22.72L44.84-22.72L44.84 0L38.36 0Z"/></g>
</svg>
</g></svg></svg>